<svg xmlns="http://www.w3.org/2000/svg" xmlns:xlink="http://www.w3.org/1999/xlink" viewBox="0 0 796.19 992.83"><defs><style>.cls-1,.cls-10,.cls-18,.cls-21,.cls-6,.cls-9{fill:none;}.cls-2,.cls-8{fill:#ecf0f1;}.cls-10,.cls-12,.cls-15,.cls-19,.cls-2,.cls-20,.cls-4{stroke:#000;}.cls-10,.cls-12,.cls-15,.cls-18,.cls-19,.cls-2,.cls-20,.cls-22,.cls-4,.cls-8,.cls-9{stroke-miterlimit:10;}.cls-15,.cls-18,.cls-19,.cls-2,.cls-20,.cls-21,.cls-22,.cls-4,.cls-8{stroke-width:0.75px;}.cls-13,.cls-3{fill:#95a5a6;}.cls-3{opacity:0.53;}.cls-4{fill:#1b547a;}.cls-5{fill:#0a202e;opacity:0.14;}.cls-18,.cls-6{stroke:#2c3e50;}.cls-21,.cls-6{stroke-linecap:round;stroke-linejoin:round;}.cls-6{stroke-width:7px;opacity:0.93;}.cls-11,.cls-17,.cls-7{fill:#bdc3c7;}.cls-21,.cls-8,.cls-9{stroke:#34495e;}.cls-9{stroke-width:0.25px;opacity:0.77;}.cls-10,.cls-12{stroke-width:0.5px;}.cls-10{opacity:0.65;}.cls-11{opacity:0.39;}.cls-12{fill:#d4d8d9;opacity:0.32;}.cls-14{clip-path:url(#clip-path);}.cls-15{fill:#0d476c;}.cls-16{clip-path:url(#clip-path-2);}.cls-17{opacity:0.34;}.cls-19{fill:#84909c;opacity:0.69;}.cls-20{fill:#fff;opacity:0.72;}.cls-21{opacity:0.11;}.cls-22{fill:#2b3d4f;stroke:#1d2a36;}</style><clipPath id="clip-path" transform="translate(-247.86 -14.62)"><path class="cls-1" d="M515.76,289.34s28.06-13.61,33.59-14,13.51-1.88,16-.32,6.9,6.14,6.9,6.14l8.75,6.86s-7.9,3.08-22.06,3.36-36.28,3.95-38.16,2.75A34.92,34.92,0,0,1,515.76,289.34Z"/></clipPath><clipPath id="clip-path-2" transform="translate(-247.86 -14.62)"><path class="cls-1" d="M734.91,289.12a.94.94,0,0,0-.21-1.49c-5.42-2.94-29.21-15.71-34.49-16.3-6-.67-14.51-2.75-17.29-1.2s-16.46,12.41-16.46,12.41a.94.94,0,0,0,.07,1.59c2.82,1.63,11.47,1.38,23.34,2.2,15.3,1.06,38.15,8,40.24,6.85A30.64,30.64,0,0,0,734.91,289.12Z"/></clipPath></defs><title>mb_portrait_flat_monochrome</title><g id="Neck"><polygon class="cls-2" points="270.74 415.85 265.74 531.27 208.79 564.35 255.24 682.84 454.73 714.34 646.72 643.84 594.22 576.35 557.97 538.35 508.73 502.85 496.73 403.86 270.74 415.85"/><path class="cls-3" d="M749.19,456.51l.7,9.3c-1.58,1.62-71.91,66.95-71.91,66.95a55.65,55.65,0,0,1-12.83,7.69L642.08,551.9a39.25,39.25,0,0,1-26.55,1.58L593.6,547a55.53,55.53,0,0,1-26.15-16.72L517.6,474.05V430.27" transform="translate(-247.86 -14.62)"/></g><g id="Shirt"><path class="cls-4" d="M249.12,734.19c-7.12-48.29,30.47-74,50.58-85,33-18,181.23-88.08,181.23-88.08a4.46,4.46,0,0,1,5.88,1.58c8.23,13.07,65,41.49,144.83,42.37,79.6.89,143.1-48.79,161.79-59.47a10.8,10.8,0,0,1,10.36-.22l189,109.5a37.86,37.86,0,0,1,20.12,38.34l30.73,313.82H256.56Z" transform="translate(-247.86 -14.62)"/><path class="cls-5" d="M461.78,579.17,309.24,657.82a7,7,0,0,0-3,2.91l-4.88,9a7,7,0,0,0-.83,3.32V674a7,7,0,0,0,7,7h25a7,7,0,0,0,4.7-1.82l37.88-34.27a7.13,7.13,0,0,1,1.23-.89l92.11-52.5A7,7,0,0,0,472,585.4h0A7,7,0,0,0,461.78,579.17Z" transform="translate(-247.86 -14.62)"/><path class="cls-6" d="M480.74,563.21a4.46,4.46,0,0,1,5.88,1.58c8.23,13.07,65,41.49,144.82,42.38,79.61.88,143.1-48.8,161.8-59.48a10.78,10.78,0,0,1,10.35-.22" transform="translate(-247.86 -14.62)"/></g><g id="shirt-text"><path class="cls-1" d="M579.37,793.83a12.2,12.2,0,0,0,2.52-4.13,15.77,15.77,0,0,0,.94-5.21,14.07,14.07,0,0,0-.82-5.08,12.51,12.51,0,0,0-2.5-4.2,11.5,11.5,0,0,0-4-2.84,13.48,13.48,0,0,0-5.36-1h-6.48v26.21h6.48a13.48,13.48,0,0,0,5.26-1A11.47,11.47,0,0,0,579.37,793.83Z" transform="translate(-247.86 -14.62)"/><path class="cls-1" d="M605.9,793.73a13.34,13.34,0,0,0,4.11,2.79,12.77,12.77,0,0,0,10,0,13.34,13.34,0,0,0,4.11-2.79,13,13,0,0,0,2.77-4.1,12.66,12.66,0,0,0,0-9.91,13.11,13.11,0,0,0-6.88-6.86,12.66,12.66,0,0,0-10,0,13.11,13.11,0,0,0-6.88,6.86,12.66,12.66,0,0,0,0,9.91A13,13,0,0,0,605.9,793.73Z" transform="translate(-247.86 -14.62)"/><polygon class="cls-1" points="369.66 881.66 374.49 881.66 372.09 876.48 369.66 881.66"/><path class="cls-1" d="M652.67,890.73a4.29,4.29,0,0,0-1.5-1.06,4.94,4.94,0,0,0-2-.39h-2.43v9.83h2.43a4.91,4.91,0,0,0,2-.37,4.25,4.25,0,0,0,1.49-1,4.6,4.6,0,0,0,.94-1.55,5.87,5.87,0,0,0,.36-1.95,5.25,5.25,0,0,0-.31-1.91A4.74,4.74,0,0,0,652.67,890.73Z" transform="translate(-247.86 -14.62)"/><path class="cls-1" d="M642.78,948.1a6,6,0,0,0,2-1.17,5.64,5.64,0,0,0,1.87-4.28,5.73,5.73,0,0,0-.51-2.44,6,6,0,0,0-1.36-1.92,6.11,6.11,0,0,0-2-1.27,6.83,6.83,0,0,0-2.52-.46h-5.38v12h5.38A7.48,7.48,0,0,0,642.78,948.1Z" transform="translate(-247.86 -14.62)"/><polygon class="cls-1" points="354.81 927.17 348.33 940.99 361.2 940.99 354.81 927.17"/><path class="cls-1" d="M676.23,948.1a6,6,0,0,0,2-1.17,5.55,5.55,0,0,0,1.87-4.28,5.73,5.73,0,0,0-.5-2.44,6.08,6.08,0,0,0-3.41-3.19,6.76,6.76,0,0,0-2.52-.46h-5.38v12h5.38A7.4,7.4,0,0,0,676.23,948.1Z" transform="translate(-247.86 -14.62)"/><path class="cls-1" d="M575.39,833.26a7.52,7.52,0,0,0-2.26-1.53,6.66,6.66,0,0,0-2.78-.58h-5v14.5h5a6.52,6.52,0,0,0,2.78-.6,7.57,7.57,0,0,0,2.26-1.61,7.79,7.79,0,0,0,1.51-2.33,7.15,7.15,0,0,0,.55-2.81,7,7,0,0,0-.55-2.78A7.22,7.22,0,0,0,575.39,833.26Z" transform="translate(-247.86 -14.62)"/><polygon class="cls-1" points="353.59 821.57 347.11 835.39 359.97 835.39 353.59 821.57"/><path class="cls-1" d="M630.82,1001.24a13.34,13.34,0,0,0-4.11-2.79,12.8,12.8,0,0,0-10.06,0,13.34,13.34,0,0,0-4.11,2.79,13,13,0,0,0-2.76,4.08,11,11,0,0,0-.59,1.76h25a11,11,0,0,0-.59-1.76A13,13,0,0,0,630.82,1001.24Z" transform="translate(-247.86 -14.62)"/><polygon class="cls-1" points="283.41 992.45 288.33 992.45 285.89 987.17 283.41 992.45"/><polygon class="cls-1" points="421.19 992.45 421.97 992.45 421.58 991.15 421.19 992.45"/><path class="cls-7" d="M579.54,802.37a17.42,17.42,0,0,0,5.73-4.12,19.26,19.26,0,0,0,3.75-6.1,21.38,21.38,0,0,0,0-14.9,18.83,18.83,0,0,0-3.75-6.1,18,18,0,0,0-5.73-4.13,17.26,17.26,0,0,0-7.27-1.53h-16v38.4h16A17.41,17.41,0,0,0,579.54,802.37Zm-15.87-4.82V771.34h6.48a13.48,13.48,0,0,1,5.36,1,11.5,11.5,0,0,1,4,2.84,12.51,12.51,0,0,1,2.5,4.2,14.07,14.07,0,0,1,.82,5.08,15.77,15.77,0,0,1-.94,5.21,12.2,12.2,0,0,1-2.52,4.13,11.47,11.47,0,0,1-4,2.74,13.48,13.48,0,0,1-5.26,1Z" transform="translate(-247.86 -14.62)"/><path class="cls-7" d="M600.67,798.8a21,21,0,0,0,6.5,4.25,20.19,20.19,0,0,0,7.89,1.56,20,20,0,0,0,7.86-1.56,21,21,0,0,0,6.47-4.25,19.63,19.63,0,0,0,4.39-6.34,19.63,19.63,0,0,0,0-15.57,20.07,20.07,0,0,0-4.39-6.34,20.72,20.72,0,0,0-28.72,0,19.83,19.83,0,0,0-4.38,6.33,19.77,19.77,0,0,0,0,15.63A20,20,0,0,0,600.67,798.8Zm2.46-19.08a13.11,13.11,0,0,1,6.88-6.86,12.66,12.66,0,0,1,10,0,13.11,13.11,0,0,1,6.88,6.86,12.66,12.66,0,0,1,0,9.91,13,13,0,0,1-2.77,4.1,13.34,13.34,0,0,1-4.11,2.79,12.77,12.77,0,0,1-10,0,13.34,13.34,0,0,1-4.11-2.79,13,13,0,0,1-2.77-4.1,12.66,12.66,0,0,1,0-9.91Z" transform="translate(-247.86 -14.62)"/><polygon class="cls-7" points="400.63 762.33 417.96 789.26 425.25 789.26 425.25 750.86 417.96 750.86 417.96 775.92 401.69 750.86 393.33 750.86 393.33 789.26 400.63 789.26 400.63 762.33"/><path class="cls-7" d="M680.89,771.78a4.4,4.4,0,0,1,.05.57,3.73,3.73,0,0,1-.87,2.45,3.62,3.62,0,0,1-2.25,1.3v.52c.25.07.53.13.84.2a4.73,4.73,0,0,0,.93.09,5.24,5.24,0,0,0,2.28-.46,4.51,4.51,0,0,0,1.63-1.24,5.58,5.58,0,0,0,1-1.83,7.1,7.1,0,0,0,.33-2.18v-7.15h-7.15v7.15h3.07A2.13,2.13,0,0,1,680.89,771.78Z" transform="translate(-247.86 -14.62)"/><polygon class="cls-7" points="449.97 789.26 457.51 789.26 457.51 757.53 468.12 757.53 468.12 750.91 439.36 750.91 439.36 757.53 449.97 757.53 449.97 789.26"/><path class="cls-7" d="M584.89,838.4a12.72,12.72,0,0,0-3.85-9.17,13.05,13.05,0,0,0-4.18-2.71,13.24,13.24,0,0,0-5.1-1H558v38.36h7.44V851.36h6.35a13.24,13.24,0,0,0,5.1-1,12.66,12.66,0,0,0,4.19-2.73,12.92,12.92,0,0,0,2.81-4.13A12.65,12.65,0,0,0,584.89,838.4Zm-8,2.71a7.79,7.79,0,0,1-1.51,2.33,7.57,7.57,0,0,1-2.26,1.61,6.52,6.52,0,0,1-2.78.6h-5v-14.5h5a6.66,6.66,0,0,1,2.78.58,7.52,7.52,0,0,1,2.26,1.53,7.22,7.22,0,0,1,1.51,2.26,7,7,0,0,1,.55,2.78A7.15,7.15,0,0,1,576.9,841.11Z" transform="translate(-247.86 -14.62)"/><path class="cls-7" d="M592.14,856.21h18.62l3.55,7.68h8.16l-18.14-38.4h-5.81l-18.14,38.4h8.16Zm9.31-20L607.83,850H595Z" transform="translate(-247.86 -14.62)"/><polygon class="cls-7" points="410.37 810.86 403.08 810.86 403.08 835.92 386.81 810.86 378.45 810.86 378.45 849.26 385.75 849.26 385.75 822.33 403.08 849.26 410.37 849.26 410.37 810.86"/><rect class="cls-7" x="417.57" y="810.91" width="7.44" height="38.35"/><path class="cls-7" d="M689.91,835.64a13.32,13.32,0,0,1,4.15-2.78,12.94,12.94,0,0,1,11.24.52,13.44,13.44,0,0,1,4.58,4.11l5.14-5.28a21.1,21.1,0,0,0-6.84-5.38,20,20,0,0,0-9-2.06,21,21,0,0,0-8,1.53,20,20,0,0,0-10.88,10.59,19.81,19.81,0,0,0,0,15.6,19.78,19.78,0,0,0,4.37,6.31,20.77,20.77,0,0,0,14.53,5.81,19.84,19.84,0,0,0,9-2.07,21.38,21.38,0,0,0,7-5.56L710,851.65a14.46,14.46,0,0,1-4.56,4.25,12.21,12.21,0,0,1-6.29,1.6,12.56,12.56,0,0,1-5.07-1,13.5,13.5,0,0,1-4.15-2.78,13.33,13.33,0,0,1-2.81-4.08,12.39,12.39,0,0,1,0-9.89A13.33,13.33,0,0,1,689.91,835.64Z" transform="translate(-247.86 -14.62)"/><path class="cls-7" d="M627.83,901.49l-6.8-14.4h-2.18l-6.8,14.4h3.06l1.35-2.88h7l1.33,2.88Zm-10.31-5.21L620,891.1l2.39,5.18Z" transform="translate(-247.86 -14.62)"/><polygon class="cls-7" points="390.65 886.86 393.38 886.86 393.38 872.46 390.65 872.46 390.65 881.86 384.55 872.46 381.42 872.46 381.42 886.86 384.15 886.86 384.15 876.76 390.65 886.86"/><path class="cls-7" d="M656.24,891.5a7.11,7.11,0,0,0-1.41-2.29,6.73,6.73,0,0,0-2.15-1.55,6.47,6.47,0,0,0-2.72-.57h-6v14.4h6a6.54,6.54,0,0,0,4.87-2.12,7.17,7.17,0,0,0,1.41-2.28,8.06,8.06,0,0,0,0-5.59Zm-2.68,4.67a4.6,4.6,0,0,1-.94,1.55,4.25,4.25,0,0,1-1.49,1,4.91,4.91,0,0,1-2,.37h-2.43v-9.83h2.43a4.94,4.94,0,0,1,2,.39,4.29,4.29,0,0,1,1.5,1.06,4.74,4.74,0,0,1,.94,1.58,5.25,5.25,0,0,1,.31,1.91A5.87,5.87,0,0,1,653.56,896.17Z" transform="translate(-247.86 -14.62)"/><path class="cls-7" d="M550.51,964.4A20.82,20.82,0,0,0,565,970.21a19.81,19.81,0,0,0,9.05-2.07,21.17,21.17,0,0,0,7-5.57l-5.18-5.32a14.31,14.31,0,0,1-4.56,4.24A12.09,12.09,0,0,1,565,963.1a12.51,12.51,0,0,1-5.06-1,13.38,13.38,0,0,1-4.15-2.78,13.16,13.16,0,0,1-2.81-4.08,12,12,0,0,1-1-4.92,12.09,12.09,0,0,1,1-5,13.16,13.16,0,0,1,2.81-4.08,13.41,13.41,0,0,1,4.15-2.79,12.68,12.68,0,0,1,5.06-1,12.49,12.49,0,0,1,6.17,1.56,13.44,13.44,0,0,1,4.58,4.11l5.14-5.28a20.89,20.89,0,0,0-6.84-5.38,19.93,19.93,0,0,0-9.05-2.06,20.92,20.92,0,0,0-8,1.53,20,20,0,0,0-10.89,10.59,19.93,19.93,0,0,0,0,15.6A19.94,19.94,0,0,0,550.51,964.4Z" transform="translate(-247.86 -14.62)"/><path class="cls-7" d="M593.36,961.81H612l3.55,7.68h8.16l-18.15-38.4h-5.8l-18.15,38.4h8.16Zm9.31-20,6.39,13.82H596.19Z" transform="translate(-247.86 -14.62)"/><path class="cls-7" d="M634.88,954.22h2.78a8.45,8.45,0,0,1,3,.48,6.37,6.37,0,0,1,2.18,1.35,8.13,8.13,0,0,1,1.55,2.06,13.63,13.63,0,0,1,1.08,2.64l2.73,8.74h8.19a13.32,13.32,0,0,1-1-2c-.3-.75-.63-1.65-1-2.71l-.79-2.28-.67-1.92c-.21-.59-.4-1.16-.59-1.7s-.4-1.09-.62-1.63a9.44,9.44,0,0,0-1.82-3,7.21,7.21,0,0,0-2.95-1.94,9.73,9.73,0,0,0,2.88-1.57,11.34,11.34,0,0,0,2.27-2.37,11.18,11.18,0,0,0,1.47-2.93,10.26,10.26,0,0,0,.53-3.26,11.06,11.06,0,0,0-.86-4.37,10.81,10.81,0,0,0-2.4-3.5,10.93,10.93,0,0,0-3.64-2.33,12.19,12.19,0,0,0-4.55-.84l-15.14,0v38.35h7.34Zm0-17.66h5.38a6.83,6.83,0,0,1,2.52.46,6.11,6.11,0,0,1,2,1.27,6,6,0,0,1,1.36,1.92,5.73,5.73,0,0,1,.51,2.44,5.64,5.64,0,0,1-1.87,4.28,6,6,0,0,1-2,1.17,7.48,7.48,0,0,1-2.52.41h-5.38Z" transform="translate(-247.86 -14.62)"/><path class="cls-7" d="M661,969.49h7.34V954.22h2.78a8.5,8.5,0,0,1,3,.48,6.33,6.33,0,0,1,2.17,1.35,7.93,7.93,0,0,1,1.56,2.06,14.29,14.29,0,0,1,1.08,2.64l2.73,8.74h8.19a13.32,13.32,0,0,1-1-2c-.31-.75-.64-1.65-1-2.71l-.79-2.28c-.23-.68-.46-1.32-.66-1.92l-.6-1.7c-.19-.54-.4-1.09-.62-1.63a9.6,9.6,0,0,0-1.81-3,7.25,7.25,0,0,0-3-1.94,9.79,9.79,0,0,0,2.89-1.57,11.29,11.29,0,0,0,2.26-2.37,10.91,10.91,0,0,0,1.48-2.93,10.25,10.25,0,0,0,.52-3.26,11.06,11.06,0,0,0-.86-4.37,10.63,10.63,0,0,0-2.39-3.5,11,11,0,0,0-3.65-2.33,12.15,12.15,0,0,0-4.55-.84l-15.14,0Zm7.34-32.93h5.38a6.76,6.76,0,0,1,2.52.46,6.08,6.08,0,0,1,3.41,3.19,5.73,5.73,0,0,1,.5,2.44,5.55,5.55,0,0,1-1.87,4.28,6,6,0,0,1-2,1.17,7.4,7.4,0,0,1-2.52.41h-5.38Z" transform="translate(-247.86 -14.62)"/><polygon class="cls-7" points="449.71 916.51 441.07 916.51 455.9 939.07 455.9 954.91 463.44 954.91 463.44 939.17 479.08 916.51 470.11 916.51 459.69 932.64 449.71 916.51"/><polygon class="cls-7" points="285.89 987.17 288.33 992.45 296.32 992.45 288.77 976.46 282.96 976.46 275.4 992.45 283.41 992.45 285.89 987.17"/><polygon class="cls-7" points="341.61 983.13 352.22 983.13 352.22 976.51 323.47 976.51 323.47 983.13 334.08 983.13 334.08 992.45 341.61 992.45 341.61 983.13"/><path class="cls-7" d="M609.78,1005.32a13,13,0,0,1,2.76-4.08,13.34,13.34,0,0,1,4.11-2.79,12.8,12.8,0,0,1,10.06,0,13.34,13.34,0,0,1,4.11,2.79,13,13,0,0,1,2.76,4.08,11,11,0,0,1,.59,1.76h7.59a18.5,18.5,0,0,0-1.34-4.59,20.21,20.21,0,0,0-4.38-6.34,20.72,20.72,0,0,0-28.72,0,20,20,0,0,0-4.39,6.33,19.28,19.28,0,0,0-1.33,4.62h7.59A11,11,0,0,1,609.78,1005.32Z" transform="translate(-247.86 -14.62)"/><polygon class="cls-7" points="421.58 991.15 421.97 992.45 429.11 992.45 424.61 976.46 418.46 976.46 413.94 992.45 421.19 992.45 421.58 991.15"/><polygon class="cls-7" points="403.34 976.46 395.47 976.46 400.66 992.45 408.57 992.45 403.34 976.46"/><polygon class="cls-7" points="447.64 976.46 439.82 976.46 434.54 992.45 442.45 992.45 447.64 976.46"/><polygon class="cls-7" points="476.83 991.82 459.02 991.82 459.02 982.65 477.07 982.65 477.07 976.51 451.72 976.51 451.72 992.45 476.83 992.45 476.83 991.82"/><rect class="cls-7" x="482.83" y="976.51" width="7.58" height="15.94"/></g><g id="Ears"><path class="cls-8" d="M476.34,284.49,495.1,357l-7,18-23.51-61a17.6,17.6,0,0,1,.1-12.89Z" transform="translate(-247.86 -14.62)"/><path class="cls-8" d="M783.1,313.44l10.08-32.78a8.74,8.74,0,0,1,8.36-6.17h7.3a1,1,0,0,1,1,1.21l-11.9,50.61a50.38,50.38,0,0,0-1.32,11.41v12.37a20.34,20.34,0,0,1-1.44,7.51L786,380.52a2.42,2.42,0,0,1-4.62-.38l-6.35-29.29a1,1,0,0,1,0-.41l8-36.92Z" transform="translate(-247.86 -14.62)"/></g><g id="Head"><path class="cls-2" d="M616.53,534.48,594.6,528a55.53,55.53,0,0,1-26.15-16.72l-62.51-71.44a55.57,55.57,0,0,1-13.2-28.8c-7.86-55.43-32.22-234-24.64-265.58,9-37.5,45-100.49,162-115.49s159,75,171,100.49c2,4.2,2.65,14.11,2.4,27.74,0,1.77-10.08.6-10.14,2.49,0,1,9.93,5,9.89,6-2.68,67.14-22.33,200.75-25.67,223.06a53.69,53.69,0,0,1-1.31,6.27l-9.42,34.87a55.56,55.56,0,0,1-18.94,28.9L678,515.76a55.65,55.65,0,0,1-12.83,7.69l-22.07,9.45A39.25,39.25,0,0,1,616.53,534.48Z" transform="translate(-247.86 -14.62)"/></g><g id="Nose"><path class="cls-9" d="M529.5,404.4c1.5-13.5,4.87-19,12.68-24.5s24.32-20,28.82-25.5,8.5-15,12-15a7.45,7.45,0,0,1,5.5,2.5" transform="translate(-247.86 -14.62)"/><path class="cls-9" d="M659.16,336.9s5.28-2,7.81,0,15.53,17.5,20,20.5,39.5,31,39.5,34.5" transform="translate(-247.86 -14.62)"/><path class="cls-10" d="M579.74,355.9c-.56,3.35-.54,7.1,2.73,8.85,3.57,1.91,10.76,1.39,14.59,3,3.57,1.48,6.62,3.16,10.28,4.34,6,1.95,10.93,5.05,17.83,4.92,4.77-.08,15.83-1.58,18.15-4.08,3.53-3.81,13.21-6.91,18.12-7.45,9.58-1,10.33-3.3,9.75-14.05" transform="translate(-247.86 -14.62)"/><path class="cls-11" d="M609.48,279.91a7.94,7.94,0,0,1,.66,1.56c1.24,3.84,2.49,7.68,3.36,11.62,1.62,7.3,1.92,14.8,2.72,22.23.41,3.83.95,7.63,1.36,11.46a27.51,27.51,0,0,1,.21,4.35A30,30,0,0,1,617,336l-2.36,10.27a2.81,2.81,0,0,1-3.45,2.73l-5.07,0a3.43,3.43,0,0,1-2.36-.62,3.25,3.25,0,0,1-.78-1.65l-2.65-9.91a7.31,7.31,0,0,1,.14-5.47l3.26-10c.55-1.7,1.12-3.4,1.66-5.1a11,11,0,0,0,.21-3.7l-.08-4.15-.16-8.3L605,283.5a7.19,7.19,0,0,1,.45-3.26,2.47,2.47,0,0,1,2.67-1.49A2.37,2.37,0,0,1,609.48,279.91Z" transform="translate(-247.86 -14.62)"/></g><g id="Eyes"><path class="cls-12" d="M739.25,289s-32.34-17.72-38.86-18.45-15.84-3-18.88-1.3c-2.25,1.26-11.75,8.6-16.51,12.31a2.33,2.33,0,0,0,.38,3.92c4,2,13.64,1.07,24.64,1.83,16.7,1.15,40.74,8.4,43,7.1S739.25,289,739.25,289Z" transform="translate(-247.86 -14.62)"/><path class="cls-13" d="M659.16,253.11S670,246.1,679,246s26.81,4.75,29.28,5.36,25,10.86,25.9,13.56,3.24,5.81-.21,4.65-36-11.53-40.48-12.31-27.17,3.17-29.58,1.05A42,42,0,0,1,659.16,253.11Z" transform="translate(-247.86 -14.62)"/><path class="cls-13" d="M503.52,262.4,532,250.9s13.95-3.59,17.85-3.05,21.77,2.55,25.68,4.05,7.25,11.5,4.46,10.5-21.21-5.85-25.67-3.93-30.69,10.82-32.93,10.62-11.16,8-15.06,6.4S503.52,262.4,503.52,262.4Z" transform="translate(-247.86 -14.62)"/><path class="cls-12" d="M515.76,289.59s30.39-14.75,36.38-15.13,14.63-2,17.33-.34,7.47,6.64,7.47,6.64l9.48,7.44s-18,3.78-26.09,3.36c-10.39-.53-35.47,3.19-37.5,1.89S515.76,289.59,515.76,289.59Z" transform="translate(-247.86 -14.62)"/><g class="cls-14"><path class="cls-15" d="M568.62,285.23a11.77,11.77,0,0,1-2.83,7.66c-2.16,2.52-15.1,2.82-17.23.71a11.78,11.78,0,1,1,20.06-8.37Z" transform="translate(-247.86 -14.62)"/></g><g class="cls-16"><path class="cls-15" d="M708.42,282.6a12.64,12.64,0,0,1-3.07,8.29c-2.33,2.73-16.35,3.05-18.66.77a12.76,12.76,0,1,1,21.73-9.06Z" transform="translate(-247.86 -14.62)"/></g><path class="cls-17" d="M733.17,133.18c-1.86,1.49-2.25,3.57-1,5.26,2.34,3.23,5.81,9.06,6.27,15.82.7,10.34-.35,19.25-2,24a3.1,3.1,0,0,0-.15.6c-.87,5.55,11,6.5,13.09,1.08a11.07,11.07,0,0,0,1-4c-.24-3.59,1.65-16.41-1.8-26.55s-9-20.54-9.61-20.5C738.61,128.87,735.6,131.23,733.17,133.18Z" transform="translate(-247.86 -14.62)"/><path class="cls-18" d="M739.25,288.75S706.91,271,700.39,270.29s-15.84-3-18.88-1.3c-2.25,1.26-11.75,8.6-16.51,12.31a2.34,2.34,0,0,0,.38,3.93c4,2,13.64,1.06,24.64,1.82,16.7,1.15,40.74,8.41,43,7.11S739.25,288.75,739.25,288.75Z" transform="translate(-247.86 -14.62)"/><path class="cls-18" d="M516.84,289.89a.59.59,0,0,1,0-1.07c2.64-1.27,9.7-3.63,16.9-6.81,7.74-3.41,15.64-7.62,18.39-7.79,6-.38,14.63-2,17.33-.34s7.47,6.64,7.47,6.64l9.48,7.44s-18,3.77-26.09,3.36c-10.39-.54-35.47,3.18-37.5,1.89C521.39,292.29,518.43,290.72,516.84,289.89Z" transform="translate(-247.86 -14.62)"/></g><g id="Smile"><path class="cls-19" d="M565.77,415.19l19-2.77L620.93,414l56.79-4.68,10.57,1.11c4.21,4.17,6.25,7.11,2.31,11.54l-42,29.71s-8.62,3.77-17,3.87-29.37-2.64-34.08-6.25c-3.64-2.79-24.62-19.93-33.5-28.91A3.06,3.06,0,0,1,565.77,415.19Z" transform="translate(-247.86 -14.62)"/><path class="cls-20" d="M582.47,430.79s11.06,4.53,19.1,7.43,19.92,2.26,26.91,1.67,29-5,32-6.06,25.81-15.15,29.8-16.2l.12,0a3.13,3.13,0,0,0-.39-6.08l-12.33-2.23L621.19,414l-36.44-1.54-19.09,2.79a2.23,2.23,0,0,0-.9,4.08Z" transform="translate(-247.86 -14.62)"/><line class="cls-21" x1="377.53" y1="421.16" x2="376.81" y2="404.46"/><line class="cls-21" x1="392.86" y1="419.46" x2="392.24" y2="403.65"/><line class="cls-21" x1="406.57" y1="416.73" x2="405.99" y2="402.65"/><line class="cls-21" x1="361.12" y1="420.18" x2="360.83" y2="404.69"/><line class="cls-21" x1="349.04" y1="418.18" x2="348.7" y2="403.76"/><line class="cls-21" x1="339.37" y1="414.05" x2="339.37" y2="402.9"/><line class="cls-21" x1="330.14" y1="410.47" x2="330.14" y2="400.32"/><line class="cls-21" x1="418.14" y1="410.47" x2="417.14" y2="400.32"/><line class="cls-21" x1="426.76" y1="407.21" x2="425.76" y2="399.06"/></g><g id="Hair"><path class="cls-22" d="M478.6,306l16.5-70.49L478.6,192V165l25.5-28.5,7.5,9s4.5,13.5,0,18-15.5,1.5-15.5,1.5,4.5,15,17.5,15,20.5-15,22-24,1.5,19.5,0,25.5,12-16.5,10.5-27,39,13.5,25.49,33,27-4.5,30-19.5-24-19.5-24-31.5,16.5-13.5,37.5-13.5h45s28.5-12,37.5-21,16.5-19.49,30-7.49,24,15,31.49,34.49,15.38,27,21.94,39-14.44,48-14.44,54,17.87,28.57,22.5,52.5S783,304,783,304s17.48-20.49,24.52-29.49,16,0,16,0-2-91.5-7.76-99-17.4-13.5-17.4-13.5,17.15,0,17.4-9,0-31.5,0-31.5-17.06,3-17.4-3S785,98.71,781,89.1,763.58,61.5,747.09,51s-37.5-27-43.5-28.5-18,0-18,0L669.09,15h-55.5c-6,0-9,13.5-18,13.5s-31.5-3-31.5-3-24,21-33,24-22.5,9-28.5,16.5-24,24-24,24-5.89,6-12,7.5,10.45,6-4.55,22.49-12,4.5-15,16.5,6,115.5,9,123S478.6,306,478.6,306Z" transform="translate(-247.86 -14.62)"/></g></svg>