<svg id="bg_img" data-name="bg img" xmlns="http://www.w3.org/2000/svg" viewBox="0 0 3809.76 2163.49"><defs><style>.cls-1{fill:#0c2f47;}.cls-1,.cls-2{opacity:0.18;}.cls-2{fill:none;stroke:#0c2f47;stroke-miterlimit:10;stroke-width:4px;}</style></defs><title>My-Process-mockups-bg-sample</title><circle class="cls-1" cx="1738.92" cy="189.38" r="6.47"/><circle class="cls-1" cx="1809.04" cy="172.96" r="22.88"/><circle class="cls-1" cx="1893.09" cy="136.5" r="16.41"/><circle class="cls-1" cx="1987.08" cy="127.05" r="1.99"/><circle class="cls-1" cx="2048.75" cy="162.02" r="11.94"/><circle class="cls-1" cx="2147.22" cy="141.13" r="41.78"/><circle class="cls-1" cx="1569.83" cy="145.61" r="4.48"/><circle class="cls-1" cx="1587.73" cy="202.31" r="6.47"/><circle class="cls-1" cx="1623.36" cy="343.05" r="69.63"/><circle class="cls-1" cx="1704.1" cy="530.54" r="3.48"/><circle class="cls-1" cx="1814.01" cy="589.73" r="17.9"/><circle class="cls-1" cx="2014.93" cy="534.02" r="33.82"/><circle class="cls-1" cx="2120.37" cy="210.76" r="26.86"/><circle class="cls-1" cx="1973.66" cy="188.22" r="7.46"/><circle class="cls-1" cx="1835.9" cy="488.27" r="21.88"/><circle class="cls-1" cx="1701.44" cy="513.63" r="13.43"/><circle class="cls-1" cx="1635.3" cy="413.67" r="20.89"/><circle class="cls-1" cx="1708.4" cy="305.75" r="6.47"/><circle class="cls-1" cx="1794.62" cy="231.15" r="14.42"/><line class="cls-2" x1="2016" y1="664" x2="2016" y2="552"/><line class="cls-2" x1="1835" y1="598" x2="1835" y2="486"/><line class="cls-2" x1="1634" y1="542" x2="1634" y2="430"/><line class="cls-2" x1="1614" y1="522" x2="1614" y2="410"/><line class="cls-2" x1="1697" y1="628" x2="1697" y2="516"/><line class="cls-2" x1="1809" y1="302" x2="1809" y2="190"/><line class="cls-2" x1="1795" y1="358" x2="1795" y2="246"/><line class="cls-2" x1="2120" y1="284" x2="2120" y2="202"/><line class="cls-2" x1="2148" y1="264" x2="2148" y2="152"/><line class="cls-2" x1="1893" y1="252" x2="1893" y2="140"/><line class="cls-2" x1="1974" y1="300" x2="1974" y2="188"/><circle class="cls-1" cx="3297.49" cy="938.05" r="6.47"/><circle class="cls-1" cx="3313.9" cy="1008.17" r="22.88"/><circle class="cls-1" cx="3350.37" cy="1092.22" r="16.41"/><circle class="cls-1" cx="3359.82" cy="1186.22" r="1.99"/><circle class="cls-1" cx="3324.84" cy="1247.89" r="11.94"/><circle class="cls-1" cx="3345.73" cy="1346.36" r="41.78"/><circle class="cls-1" cx="3341.26" cy="768.96" r="4.48"/><circle class="cls-1" cx="3284.56" cy="786.86" r="6.47"/><circle class="cls-1" cx="3143.82" cy="822.49" r="69.63"/><circle class="cls-1" cx="2956.32" cy="903.24" r="3.48"/><circle class="cls-1" cx="2897.14" cy="1013.15" r="17.9"/><circle class="cls-1" cx="2952.84" cy="1214.07" r="33.82"/><circle class="cls-1" cx="3276.11" cy="1319.5" r="26.86"/><circle class="cls-1" cx="3298.65" cy="1172.79" r="7.46"/><circle class="cls-1" cx="2998.6" cy="1035.03" r="21.88"/><circle class="cls-1" cx="2973.23" cy="900.57" r="13.43"/><circle class="cls-1" cx="3073.2" cy="834.43" r="20.89"/><circle class="cls-1" cx="3181.12" cy="907.54" r="6.47"/><circle class="cls-1" cx="3255.72" cy="993.75" r="14.42"/><line class="cls-2" x1="2822.87" y1="1215.13" x2="2934.87" y2="1215.13"/><line class="cls-2" x1="2888.87" y1="1034.13" x2="3000.87" y2="1034.13"/><line class="cls-2" x1="2944.87" y1="833.13" x2="3056.87" y2="833.13"/><line class="cls-2" x1="2964.87" y1="813.13" x2="3076.87" y2="813.13"/><line class="cls-2" x1="2858.87" y1="896.13" x2="2970.87" y2="896.13"/><line class="cls-2" x1="3184.87" y1="1008.13" x2="3296.87" y2="1008.13"/><line class="cls-2" x1="3128.87" y1="994.13" x2="3240.87" y2="994.13"/><line class="cls-2" x1="3202.87" y1="1319.13" x2="3284.87" y2="1319.13"/><line class="cls-2" x1="3222.87" y1="1347.13" x2="3334.87" y2="1347.13"/><line class="cls-2" x1="3234.87" y1="1092.13" x2="3346.87" y2="1092.13"/><line class="cls-2" x1="3186.87" y1="1173.13" x2="3298.87" y2="1173.13"/></svg>