<svg xmlns="http://www.w3.org/2000/svg" viewBox="0 0 234 71.13"><defs><style>.cls-1{fill:#383838;}</style></defs><title>name-logo-expanded</title><g id="Main"><path class="cls-1" d="M3.53,3H8.16l3.67,9.67L15.72,3H20.4l2.74,18.1H18.43L17.11,10.63h-.05L12.72,21.05H10.85L6.7,10.63h0L5.14,21.05H.46Z"/><path class="cls-1" d="M27.22,1.56a2.29,2.29,0,0,1,.94.19,2.5,2.5,0,0,1,.78.53A2.41,2.41,0,0,1,29.66,4a2.37,2.37,0,0,1-.19,1,2.57,2.57,0,0,1-.53.78,2.32,2.32,0,0,1-.78.52,2.33,2.33,0,0,1-1.89,0,2.32,2.32,0,0,1-.78-.52A2.57,2.57,0,0,1,25,5a2.37,2.37,0,0,1-.19-1,2.41,2.41,0,0,1,.72-1.73,2.5,2.5,0,0,1,.78-.53A2.3,2.3,0,0,1,27.22,1.56ZM29.4,21.05H25V8.74H29.4Z"/><path class="cls-1" d="M41.16,12.74a5.23,5.23,0,0,0-1.06-.61,2.9,2.9,0,0,0-1.2-.25,3.09,3.09,0,0,0-1.17.23,2.86,2.86,0,0,0-1,.63,3,3,0,0,0-.87,2.14,2.91,2.91,0,0,0,.86,2.18A3,3,0,0,0,39,17.9a3.43,3.43,0,0,0,1.16-.21,3,3,0,0,0,1-.63v3.7a6.23,6.23,0,0,1-1.5.53,7.55,7.55,0,0,1-1.57.17A7,7,0,0,1,35.51,21a6.7,6.7,0,0,1-2.14-1.35,6.23,6.23,0,0,1-2-4.61,6.87,6.87,0,0,1,.53-2.72,6.19,6.19,0,0,1,1.46-2.11,6.81,6.81,0,0,1,2.2-1.37,7.31,7.31,0,0,1,2.7-.49,6.28,6.28,0,0,1,1.5.18,5.5,5.5,0,0,1,1.38.54Z"/><path class="cls-1" d="M48.24,1.13V10.3h0A5,5,0,0,1,50,8.81a4.86,4.86,0,0,1,2.23-.48,5.06,5.06,0,0,1,2,.37A3.76,3.76,0,0,1,55.7,9.76a4.4,4.4,0,0,1,.87,1.63,7.34,7.34,0,0,1,.29,2.12v7.54H52.49V14.74a9.28,9.28,0,0,0-.06-1.06,2.84,2.84,0,0,0-.27-.95,1.55,1.55,0,0,0-.6-.67,1.88,1.88,0,0,0-1-.25,2.11,2.11,0,0,0-1.08.25,2.17,2.17,0,0,0-.71.67,2.75,2.75,0,0,0-.38.95,5.37,5.37,0,0,0-.11,1.06v6.31H43.87V1.13Z"/><path class="cls-1" d="M73.2,21.05H68.83V19.68h0A3.34,3.34,0,0,1,67.18,21a5.44,5.44,0,0,1-2.12.44,5.9,5.9,0,0,1-2.5-.53,6.13,6.13,0,0,1-2-1.43,6.61,6.61,0,0,1-1.29-2.1,7.12,7.12,0,0,1-.45-2.52,6.87,6.87,0,0,1,1.71-4.6,5.91,5.91,0,0,1,1.95-1.42A5.76,5.76,0,0,1,65,8.33a5.83,5.83,0,0,1,2.1.39,4.2,4.2,0,0,1,1.71,1.22V8.74H73.2Zm-7-8.93a2.94,2.94,0,0,0-1.19.23,2.75,2.75,0,0,0-.88.6,2.63,2.63,0,0,0-.55.87,3,3,0,0,0-.19,1.08,2.78,2.78,0,0,0,.73,2,3.12,3.12,0,0,0,4.15,0,2.78,2.78,0,0,0,.74-2,3,3,0,0,0-.2-1.08,2.48,2.48,0,0,0-.55-.87,2.7,2.7,0,0,0-.87-.6A3,3,0,0,0,66.17,12.12Z"/><path class="cls-1" d="M88.75,15.62H79.56a2.81,2.81,0,0,0,.68,2,3.26,3.26,0,0,0,3.27.45,2.11,2.11,0,0,0,.87-.88h4.2a5,5,0,0,1-.87,1.89,5.45,5.45,0,0,1-1.47,1.32,6.39,6.39,0,0,1-1.86.76,8.37,8.37,0,0,1-2.06.26A9,9,0,0,1,79.48,21a6.16,6.16,0,0,1-2.26-1.26,5.75,5.75,0,0,1-1.49-2.05,6.87,6.87,0,0,1-.54-2.81,7.14,7.14,0,0,1,.51-2.76,5.75,5.75,0,0,1,1.4-2.06,6.38,6.38,0,0,1,2.15-1.3A8.07,8.07,0,0,1,82,8.33a7.88,7.88,0,0,1,2.85.48A5.71,5.71,0,0,1,87,10.18a6,6,0,0,1,1.32,2.14,8.44,8.44,0,0,1,.45,2.85Zm-4-2.52a2.25,2.25,0,0,0-.88-1.41,2.61,2.61,0,0,0-1.6-.53,2.89,2.89,0,0,0-1.68.49,2.2,2.2,0,0,0-.91,1.45Z"/><path class="cls-1" d="M95.11,21.05H90.74V1.13h4.37Z"/><path class="cls-1" d="M106.32,21.05V3H113a9.43,9.43,0,0,1,2.2.25,4.55,4.55,0,0,1,1.7.81A3.55,3.55,0,0,1,118,5.46a5.52,5.52,0,0,1,.39,2.2A5.09,5.09,0,0,1,118,9.84a3.21,3.21,0,0,1-1.55,1.51v.05a3.91,3.91,0,0,1,2.82,1.49,5.17,5.17,0,0,1,.88,3.12,4.77,4.77,0,0,1-.56,2.39A4.7,4.7,0,0,1,118.08,20a6.28,6.28,0,0,1-2.09.84,12,12,0,0,1-2.42.25Zm4.7-11h.53a7,7,0,0,0,.91-.06,2.54,2.54,0,0,0,.82-.24,1.57,1.57,0,0,0,.59-.53,1.69,1.69,0,0,0,.22-.93,1.62,1.62,0,0,0-.25-1,1.65,1.65,0,0,0-.64-.53,2.53,2.53,0,0,0-.88-.21c-.32,0-.64,0-1,0H111Zm0,7.39h.6l1.18,0a4.79,4.79,0,0,0,1.22-.19,2.09,2.09,0,0,0,1-.56,1.58,1.58,0,0,0,.39-1.14A1.73,1.73,0,0,0,115,14.3a2.06,2.06,0,0,0-1-.57,4.62,4.62,0,0,0-1.26-.17H111Z"/><path class="cls-1" d="M126.77,8.74v6.57a6,6,0,0,0,.08,1.07,2.21,2.21,0,0,0,.32.85,1.49,1.49,0,0,0,.68.55,2.64,2.64,0,0,0,1.1.2,2.72,2.72,0,0,0,1.11-.2,1.51,1.51,0,0,0,.67-.55,2.06,2.06,0,0,0,.32-.85,6,6,0,0,0,.08-1.07V8.74h4.37v7.41a5.76,5.76,0,0,1-.5,2.53,4.28,4.28,0,0,1-1.39,1.64,6,6,0,0,1-2.08.87,11.61,11.61,0,0,1-2.58.27,11.77,11.77,0,0,1-2.59-.27,5.83,5.83,0,0,1-2.08-.87,4.35,4.35,0,0,1-1.38-1.64,5.76,5.76,0,0,1-.5-2.53V8.74Z"/><path class="cls-1" d="M142.66,10.75h0a3.88,3.88,0,0,1,1.66-1.67,5.18,5.18,0,0,1,2.33-.51h.84v4.2a2.71,2.71,0,0,0-.9-.34,5.73,5.73,0,0,0-.95-.07,3.42,3.42,0,0,0-1.5.29,2.28,2.28,0,0,0-.92.78,3.06,3.06,0,0,0-.47,1.17,7.69,7.69,0,0,0-.13,1.48v5h-4.37V8.74h4.37Z"/><path class="cls-1" d="M153.53,10.32h.05a4.35,4.35,0,0,1,1.7-1.56,5.25,5.25,0,0,1,2.23-.43,5.45,5.45,0,0,1,2.13.37,3.7,3.7,0,0,1,1.42,1,4.42,4.42,0,0,1,.82,1.62,7.65,7.65,0,0,1,.26,2.08v7.61h-4.36v-7a3.49,3.49,0,0,0-.17-1.08,1.88,1.88,0,0,0-.58-.84,1.91,1.91,0,0,0-1.22-.33,2.29,2.29,0,0,0-1.11.23,1.88,1.88,0,0,0-.69.62,2.46,2.46,0,0,0-.37.91,4.86,4.86,0,0,0-.11,1.09v6.39h-4.37V8.74h4.37Z"/><path class="cls-1" d="M173.16,11.9a5.74,5.74,0,0,0-1.15-.43,4.88,4.88,0,0,0-1.2-.17,2.37,2.37,0,0,0-.43,0,1.7,1.7,0,0,0-.45.15,1.07,1.07,0,0,0-.35.25.56.56,0,0,0-.14.39.65.65,0,0,0,.23.51,1.57,1.57,0,0,0,.54.3,4.42,4.42,0,0,0,.65.17l.55.1a7.26,7.26,0,0,1,1.41.42,4,4,0,0,1,1.13.71,3.22,3.22,0,0,1,.76,1.05,3.61,3.61,0,0,1,.27,1.47,4,4,0,0,1-.5,2.09,4.31,4.31,0,0,1-1.33,1.42,6,6,0,0,1-1.86.81,8.31,8.31,0,0,1-2.11.27,9.35,9.35,0,0,1-2.58-.36A9.63,9.63,0,0,1,164.21,20L165.79,17a6.81,6.81,0,0,0,.77.46c.29.14.58.27.89.39a6.13,6.13,0,0,0,.92.29,4.07,4.07,0,0,0,.88.11,2.48,2.48,0,0,0,.45,0,1.44,1.44,0,0,0,.45-.17,1.14,1.14,0,0,0,.33-.28.77.77,0,0,0-.1-1,1.88,1.88,0,0,0-.63-.34,7.33,7.33,0,0,0-.87-.22l-1-.24c-.34-.1-.67-.22-1-.35A2.82,2.82,0,0,1,166,15a2.78,2.78,0,0,1-.63-.92,3.5,3.5,0,0,1-.24-1.39,3.92,3.92,0,0,1,.47-2,4.18,4.18,0,0,1,1.24-1.37,5.31,5.31,0,0,1,1.74-.79,7.79,7.79,0,0,1,2-.25,11.89,11.89,0,0,1,2.07.18,8.24,8.24,0,0,1,2,.61Z"/><path class="cls-1" d="M2.88,58H6.62v1.41H1.37V45.81H2.88Z"/><path class="cls-1" d="M8.84,55.45A3.08,3.08,0,0,0,9,56.56a2.83,2.83,0,0,0,.57.89,2.66,2.66,0,0,0,.88.61,2.73,2.73,0,0,0,1.12.22,2.39,2.39,0,0,0,1.54-.49,4,4,0,0,0,1-1.26l1.23.71A4.63,4.63,0,0,1,13.8,59a4.22,4.22,0,0,1-2.3.62,4.16,4.16,0,0,1-1.72-.34A4,4,0,0,1,7.65,57a5,5,0,0,1-.29-1.71,5.77,5.77,0,0,1,.27-1.78A4.32,4.32,0,0,1,8.42,52a3.71,3.71,0,0,1,1.29-1,4.1,4.1,0,0,1,1.76-.36,4,4,0,0,1,1.8.39,3.75,3.75,0,0,1,1.28,1,4.55,4.55,0,0,1,.75,1.53,5.41,5.41,0,0,1,.18,1.8ZM14,54.23a2.62,2.62,0,0,0-.3-.85,2.76,2.76,0,0,0-.55-.71,2.15,2.15,0,0,0-.74-.48,2.29,2.29,0,0,0-.9-.17,2.32,2.32,0,0,0-.9.17,2.75,2.75,0,0,0-1.36,1.19,2.42,2.42,0,0,0-.31.85Z"/><path class="cls-1" d="M25.18,59.38H23.74V58.21h0a3.58,3.58,0,0,1-2.92,1.4,3.67,3.67,0,0,1-1.68-.37,3.87,3.87,0,0,1-1.28-1A4.29,4.29,0,0,1,17,56.85a5,5,0,0,1-.28-1.68A5.17,5.17,0,0,1,17,53.45a4.24,4.24,0,0,1,.8-1.43,3.77,3.77,0,0,1,1.28-1,3.9,3.9,0,0,1,1.71-.36,3.64,3.64,0,0,1,1.62.38,3.73,3.73,0,0,1,1.28,1.06h0v-1.2h1.44ZM21,52a2.44,2.44,0,0,0-1.13.25,2.74,2.74,0,0,0-.87.67,3.38,3.38,0,0,0-.56,1,3.33,3.33,0,0,0-.19,1.14,4,4,0,0,0,.18,1.2,3.05,3.05,0,0,0,.53,1,2.61,2.61,0,0,0,.86.72,2.53,2.53,0,0,0,1.2.27A2.74,2.74,0,0,0,22.21,58a2.63,2.63,0,0,0,.88-.7,3.12,3.12,0,0,0,.54-1,4,4,0,0,0,.18-1.22,3.58,3.58,0,0,0-.19-1.19,3.09,3.09,0,0,0-.56-1,2.56,2.56,0,0,0-.89-.66A2.92,2.92,0,0,0,21,52Z"/><path class="cls-1" d="M29.21,51.84h0A4.47,4.47,0,0,1,30,51a1.68,1.68,0,0,1,1.1-.33,2.15,2.15,0,0,1,.68.11,3.45,3.45,0,0,1,.62.29l-.69,1.31-.39-.26a.93.93,0,0,0-.47-.11,1.26,1.26,0,0,0-.93.33,2,2,0,0,0-.49.82,3.77,3.77,0,0,0-.2,1c0,.36,0,.68,0,1v4.23H27.77V50.92h1.44Z"/><path class="cls-1" d="M35.46,51.94h0a3.12,3.12,0,0,1,1-.93,2.76,2.76,0,0,1,1.38-.33,3,3,0,0,1,1.44.3,2.43,2.43,0,0,1,.88.8A3.16,3.16,0,0,1,40.67,53a8,8,0,0,1,.12,1.41v5H39.35V54.61c0-.34,0-.66-.05-1a2.46,2.46,0,0,0-.21-.83,1.52,1.52,0,0,0-.53-.57,2,2,0,0,0-1-.21,1.93,1.93,0,0,0-1.17.31,2,2,0,0,0-.63.8,4.07,4.07,0,0,0-.26,1.08c0,.4,0,.78,0,1.15v4H34V50.92h1.44Z"/><path class="cls-1" d="M44.51,46.71a1,1,0,0,1,1,1,1,1,0,0,1-.31.73,1,1,0,0,1-.72.3,1,1,0,0,1-.72-.3,1,1,0,0,1-.3-.73,1,1,0,0,1,1-1Zm.72,12.67H43.79V50.92h1.44Z"/><path class="cls-1" d="M49.68,51.94h0a3.25,3.25,0,0,1,1-.93,2.76,2.76,0,0,1,1.38-.33,3,3,0,0,1,1.44.3,2.43,2.43,0,0,1,.88.8A3.16,3.16,0,0,1,54.89,53,8,8,0,0,1,55,54.36v5H53.57V54.61c0-.34,0-.66,0-1a2.46,2.46,0,0,0-.21-.83,1.52,1.52,0,0,0-.53-.57,2,2,0,0,0-1-.21,1.93,1.93,0,0,0-1.17.31,2,2,0,0,0-.63.8,4.07,4.07,0,0,0-.26,1.08c0,.4,0,.78,0,1.15v4H48.24V50.92h1.44Z"/><path class="cls-1" d="M65.38,59c0,.34,0,.67,0,1a9.24,9.24,0,0,1-.1.92,5.22,5.22,0,0,1-.25.88,3.57,3.57,0,0,1-.5.85,3.68,3.68,0,0,1-1.46,1.13,4.64,4.64,0,0,1-1.81.36,4.82,4.82,0,0,1-1.64-.27,3.62,3.62,0,0,1-2.18-2,4,4,0,0,1-.34-1.62h1.44a2.46,2.46,0,0,0,.77,1.87,3.18,3.18,0,0,0,3.29.39,2.2,2.2,0,0,0,.83-.77,3.07,3.07,0,0,0,.42-1.12,8.44,8.44,0,0,0,.1-1.36v-1h0a3.54,3.54,0,0,1-1.3,1,3.68,3.68,0,0,1-1.64.37,3.78,3.78,0,0,1-1.66-.36,4,4,0,0,1-1.28-1,4.48,4.48,0,0,1-.81-1.41,5.3,5.3,0,0,1-.28-1.69,5.19,5.19,0,0,1,.29-1.7A4.65,4.65,0,0,1,58,52a4,4,0,0,1,1.29-1A3.85,3.85,0,0,1,61,50.68a3.52,3.52,0,0,1,1.62.38,3.76,3.76,0,0,1,1.26,1.06h0v-1.2h1.45ZM61.16,52a2.47,2.47,0,0,0-1.13.25,2.7,2.7,0,0,0-.86.67,3,3,0,0,0-.56,1,3.11,3.11,0,0,0-.2,1.14,4,4,0,0,0,.18,1.2,3.24,3.24,0,0,0,.53,1A2.61,2.61,0,0,0,60,58a2.56,2.56,0,0,0,1.2.27A2.79,2.79,0,0,0,62.41,58a2.73,2.73,0,0,0,.88-.7,3.12,3.12,0,0,0,.54-1A4,4,0,0,0,64,55.08a3.58,3.58,0,0,0-.2-1.19,2.9,2.9,0,0,0-.56-1,2.56,2.56,0,0,0-.89-.66A2.86,2.86,0,0,0,61.16,52Z"/><path class="cls-1" d="M73.73,45.81h7v1.4H75.24v4H80.6v1.41H75.24V58h5.52v1.41h-7Z"/><path class="cls-1" d="M82.51,50.92h1.76l2.22,2.88,2.21-2.88h1.8l-3.09,4,3.51,4.5H89.17l-2.68-3.44-2.7,3.44H82l3.6-4.5Z"/><path class="cls-1" d="M93.67,52.12h0A3.54,3.54,0,0,1,95,51.05a3.79,3.79,0,0,1,1.64-.37,3.85,3.85,0,0,1,1.69.37,4,4,0,0,1,1.26,1,4.58,4.58,0,0,1,.81,1.43,4.86,4.86,0,0,1,.29,1.7,5.11,5.11,0,0,1-.28,1.71,4.22,4.22,0,0,1-.8,1.42,3.6,3.6,0,0,1-1.28,1,3.9,3.9,0,0,1-1.71.35A3.63,3.63,0,0,1,95,59.24a3.38,3.38,0,0,1-1.27-1.05h0v5.94H92.23V50.92h1.44Zm2.68-.1a2.44,2.44,0,0,0-1.13.25,2.74,2.74,0,0,0-.87.67,3.39,3.39,0,0,0-.75,2.12,4,4,0,0,0,.18,1.2,3.24,3.24,0,0,0,.53,1,2.61,2.61,0,0,0,.86.72,2.56,2.56,0,0,0,1.2.27A2.71,2.71,0,0,0,97.59,58a2.66,2.66,0,0,0,.89-.7,3.12,3.12,0,0,0,.54-1,4,4,0,0,0,.18-1.22,3.58,3.58,0,0,0-.2-1.19,2.9,2.9,0,0,0-.56-1,2.56,2.56,0,0,0-.89-.66A2.86,2.86,0,0,0,96.35,52Z"/><path class="cls-1" d="M103.41,55.45a2.89,2.89,0,0,0,.21,1.11,2.65,2.65,0,0,0,1.44,1.5,2.73,2.73,0,0,0,1.12.22,2.39,2.39,0,0,0,1.54-.49,4,4,0,0,0,1-1.26l1.23.71A4.63,4.63,0,0,1,108.37,59a4.22,4.22,0,0,1-2.3.62,4.16,4.16,0,0,1-1.72-.34,4,4,0,0,1-2.13-2.3,5,5,0,0,1-.29-1.71,5.77,5.77,0,0,1,.27-1.78A4.32,4.32,0,0,1,103,52a3.71,3.71,0,0,1,1.29-1,4.1,4.1,0,0,1,1.76-.36,4,4,0,0,1,1.8.39,3.75,3.75,0,0,1,1.28,1,4.55,4.55,0,0,1,.75,1.53,5.41,5.41,0,0,1,.18,1.8Zm5.13-1.22a2.62,2.62,0,0,0-.3-.85,2.76,2.76,0,0,0-.55-.71,2.15,2.15,0,0,0-.74-.48,2.29,2.29,0,0,0-.9-.17,2.32,2.32,0,0,0-.9.17,2.75,2.75,0,0,0-1.36,1.19,2.42,2.42,0,0,0-.31.85Z"/><path class="cls-1" d="M113.4,51.84h0a4.49,4.49,0,0,1,.78-.83,1.66,1.66,0,0,1,1.1-.33,2.09,2.09,0,0,1,.67.11,3.16,3.16,0,0,1,.62.29l-.68,1.31-.4-.26a.91.91,0,0,0-.47-.11,1.25,1.25,0,0,0-.92.33,2.06,2.06,0,0,0-.5.82,4.19,4.19,0,0,0-.2,1q0,.54,0,1v4.23H112V50.92h1.44Z"/><path class="cls-1" d="M119.05,46.71a1,1,0,0,1,.72.3,1,1,0,0,1,.31.72,1,1,0,0,1-.31.73,1,1,0,0,1-1.44,0,1,1,0,0,1-.31-.73,1,1,0,0,1,.31-.72A1,1,0,0,1,119.05,46.71Zm.72,12.67h-1.44V50.92h1.44Z"/><path class="cls-1" d="M123.5,55.45a3.08,3.08,0,0,0,.2,1.11,2.83,2.83,0,0,0,.57.89,2.73,2.73,0,0,0,.87.61,2.81,2.81,0,0,0,1.13.22,2.41,2.41,0,0,0,1.54-.49,4,4,0,0,0,1-1.26l1.23.71A4.63,4.63,0,0,1,128.46,59a4.24,4.24,0,0,1-2.3.62,4.13,4.13,0,0,1-1.72-.34,4,4,0,0,1-2.13-2.3,5,5,0,0,1-.29-1.71,5.77,5.77,0,0,1,.27-1.78,4.15,4.15,0,0,1,.79-1.45,3.71,3.71,0,0,1,1.29-1,4.05,4.05,0,0,1,1.75-.36,3.92,3.92,0,0,1,1.8.39,3.69,3.69,0,0,1,1.29,1,4.55,4.55,0,0,1,.75,1.53,6,6,0,0,1,.18,1.8Zm5.13-1.22a2.62,2.62,0,0,0-.3-.85,2.76,2.76,0,0,0-.55-.71,2.19,2.19,0,0,0-.75-.48,2.24,2.24,0,0,0-.89-.17,2.32,2.32,0,0,0-.9.17,2.42,2.42,0,0,0-.78.48,2.9,2.9,0,0,0-.59.71,2.62,2.62,0,0,0-.3.85Z"/><path class="cls-1" d="M133.56,51.94h0a3.25,3.25,0,0,1,1-.93,2.76,2.76,0,0,1,1.38-.33,3.07,3.07,0,0,1,1.44.3,2.43,2.43,0,0,1,.88.8,3.35,3.35,0,0,1,.44,1.17,8,8,0,0,1,.12,1.41v5h-1.44V54.61c0-.34,0-.66,0-1a2.25,2.25,0,0,0-.22-.83,1.38,1.38,0,0,0-.53-.57,2,2,0,0,0-1-.21,1.92,1.92,0,0,0-1.16.31,2,2,0,0,0-.63.8,4.07,4.07,0,0,0-.26,1.08c0,.4-.05.78-.05,1.15v4h-1.44V50.92h1.44Z"/><path class="cls-1" d="M147.9,53.44h0a4.8,4.8,0,0,0-1.14-1,2.76,2.76,0,0,0-1.49-.39,2.84,2.84,0,0,0-1.2.25,3.06,3.06,0,0,0-.94.68,3.12,3.12,0,0,0-.62,1,3.24,3.24,0,0,0-.23,1.2,3.35,3.35,0,0,0,.21,1.19,3.09,3.09,0,0,0,.58,1A2.86,2.86,0,0,0,144,58a2.79,2.79,0,0,0,1.21.25,3,3,0,0,0,1.57-.39,4,4,0,0,0,1.18-1.07h0v1.93a6.12,6.12,0,0,1-1.28.64,4.24,4.24,0,0,1-1.4.22,4.64,4.64,0,0,1-1.79-.34,4.39,4.39,0,0,1-1.43-.94,4.2,4.2,0,0,1-.94-1.41,4.5,4.5,0,0,1-.34-1.77,4.33,4.33,0,0,1,.36-1.76,4.53,4.53,0,0,1,1-1.42,4.34,4.34,0,0,1,1.43-.94,4.45,4.45,0,0,1,1.75-.35,4.55,4.55,0,0,1,1.36.22,4.2,4.2,0,0,1,1.25.63Z"/><path class="cls-1" d="M150.91,55.45a2.89,2.89,0,0,0,.21,1.11,2.65,2.65,0,0,0,1.44,1.5,2.73,2.73,0,0,0,1.12.22,2.39,2.39,0,0,0,1.54-.49,4,4,0,0,0,1-1.26l1.22.71A4.55,4.55,0,0,1,155.87,59a4.22,4.22,0,0,1-2.3.62,4.11,4.11,0,0,1-1.71-.34,3.9,3.9,0,0,1-1.31-.93,4,4,0,0,1-.83-1.37,5,5,0,0,1-.29-1.71,5.77,5.77,0,0,1,.27-1.78,4.17,4.17,0,0,1,.8-1.45,3.59,3.59,0,0,1,1.28-1,4.1,4.1,0,0,1,1.76-.36,4,4,0,0,1,1.8.39,3.88,3.88,0,0,1,1.29,1,4.35,4.35,0,0,1,.74,1.53,5.41,5.41,0,0,1,.18,1.8ZM156,54.23a2.62,2.62,0,0,0-.3-.85,2.76,2.76,0,0,0-.55-.71,2.15,2.15,0,0,0-.74-.48,2.44,2.44,0,0,0-1.79,0,2.58,2.58,0,0,0-.79.48,2.66,2.66,0,0,0-.58.71,2.42,2.42,0,0,0-.31.85Z"/><path class="cls-1" d="M165.08,45.81h2.55c.51,0,1,0,1.46.06a7.32,7.32,0,0,1,1.35.24,6.63,6.63,0,0,1,2.48,1.33,6.18,6.18,0,0,1,1.71,2.33,7.37,7.37,0,0,1,.54,2.84,7,7,0,0,1-.54,2.77A6.32,6.32,0,0,1,173,57.67a6.92,6.92,0,0,1-1.22.87,6.06,6.06,0,0,1-1.27.52,7.71,7.71,0,0,1-1.37.26c-.47,0-1,.06-1.5.06h-2.52ZM167.69,58a11.4,11.4,0,0,0,1.18,0,5.59,5.59,0,0,0,1.11-.21,4.59,4.59,0,0,0,1-.43,4.75,4.75,0,0,0,1-.71,5.17,5.17,0,0,0,1.27-1.82,5.62,5.62,0,0,0,.42-2.16,5.83,5.83,0,0,0-.44-2.23,4.89,4.89,0,0,0-1.32-1.84,4.68,4.68,0,0,0-2-1.07,9.93,9.93,0,0,0-2.24-.24h-1.1V58Z"/><path class="cls-1" d="M178,55.45a2.89,2.89,0,0,0,.21,1.11,2.65,2.65,0,0,0,1.44,1.5,2.73,2.73,0,0,0,1.12.22,2.39,2.39,0,0,0,1.54-.49,4,4,0,0,0,1-1.26l1.22.71A4.55,4.55,0,0,1,183,59a4.22,4.22,0,0,1-2.3.62,4.11,4.11,0,0,1-1.71-.34,3.9,3.9,0,0,1-1.31-.93,4,4,0,0,1-.83-1.37,5,5,0,0,1-.29-1.71,5.77,5.77,0,0,1,.27-1.78,4.17,4.17,0,0,1,.8-1.45,3.59,3.59,0,0,1,1.28-1,4.1,4.1,0,0,1,1.76-.36,4,4,0,0,1,1.8.39,3.75,3.75,0,0,1,1.28,1,4.21,4.21,0,0,1,.75,1.53,5.41,5.41,0,0,1,.18,1.8Zm5.13-1.22a2.62,2.62,0,0,0-.3-.85,2.76,2.76,0,0,0-.55-.71,2.15,2.15,0,0,0-.74-.48,2.44,2.44,0,0,0-1.79,0,2.58,2.58,0,0,0-.79.48,2.66,2.66,0,0,0-.58.71,2.42,2.42,0,0,0-.31.85Z"/><path class="cls-1" d="M190,52.88a1.44,1.44,0,0,0-.45-.6,1,1,0,0,0-.7-.26,1.1,1.1,0,0,0-.71.26.82.82,0,0,0-.33.67.74.74,0,0,0,.17.5,2.12,2.12,0,0,0,.44.38,3.58,3.58,0,0,0,.62.3l.73.3c.25.11.49.23.73.36a2.64,2.64,0,0,1,.62.48,2.24,2.24,0,0,1,.44.66,2.38,2.38,0,0,1,.17.93,2.79,2.79,0,0,1-.23,1.11,2.47,2.47,0,0,1-.62.87,2.92,2.92,0,0,1-.91.57,3.07,3.07,0,0,1-1.1.2,3,3,0,0,1-3-2.14l1.28-.54a3.21,3.21,0,0,0,.64,1,1.46,1.46,0,0,0,1.09.38,1.4,1.4,0,0,0,1-.36,1.21,1.21,0,0,0,.39-.94,1,1,0,0,0-.28-.75,2.65,2.65,0,0,0-.71-.51c-.28-.14-.59-.27-.91-.4a5,5,0,0,1-.92-.47,2.34,2.34,0,0,1-.71-.69,1.88,1.88,0,0,1-.28-1.08,2.23,2.23,0,0,1,.2-1,2.19,2.19,0,0,1,.54-.76,2.76,2.76,0,0,1,1.78-.66,2.24,2.24,0,0,1,1.35.45,2.7,2.7,0,0,1,.9,1.12Z"/><path class="cls-1" d="M194.79,46.71a1,1,0,0,1,1,1,1,1,0,0,1-.31.73,1,1,0,0,1-.72.3,1,1,0,0,1-.72-.3,1,1,0,0,1-.3-.73,1,1,0,0,1,1-1Zm.72,12.67h-1.44V50.92h1.44Z"/><path class="cls-1" d="M206.15,59c0,.34,0,.67,0,1a5.63,5.63,0,0,1-.1.92,3.85,3.85,0,0,1-.25.88,3.52,3.52,0,0,1-.49.85,3.75,3.75,0,0,1-1.46,1.13,4.69,4.69,0,0,1-1.82.36,4.86,4.86,0,0,1-1.64-.27,3.68,3.68,0,0,1-1.3-.77,3.58,3.58,0,0,1-.87-1.22,4.18,4.18,0,0,1-.35-1.62h1.44a2.47,2.47,0,0,0,.78,1.87,3.16,3.16,0,0,0,3.28.39,2.16,2.16,0,0,0,.84-.77,3.06,3.06,0,0,0,.41-1.12,7.42,7.42,0,0,0,.11-1.36v-1h0a3.54,3.54,0,0,1-1.3,1,3.91,3.91,0,0,1-3.3,0,3.84,3.84,0,0,1-1.28-1,4.12,4.12,0,0,1-.81-1.41,5,5,0,0,1-.28-1.69,5.19,5.19,0,0,1,.29-1.7,4.46,4.46,0,0,1,.82-1.44,4,4,0,0,1,1.28-1,3.91,3.91,0,0,1,1.69-.37,3.59,3.59,0,0,1,1.63.38,3.76,3.76,0,0,1,1.26,1.06h0v-1.2h1.44ZM201.94,52a2.44,2.44,0,0,0-1.13.25,2.74,2.74,0,0,0-.87.67,3.38,3.38,0,0,0-.56,1,3.33,3.33,0,0,0-.19,1.14,4,4,0,0,0,.18,1.2,3.05,3.05,0,0,0,.53,1,2.61,2.61,0,0,0,.86.72,2.53,2.53,0,0,0,1.2.27,2.74,2.74,0,0,0,1.22-.26,2.63,2.63,0,0,0,.88-.7,3.12,3.12,0,0,0,.54-1,4,4,0,0,0,.18-1.22,3.34,3.34,0,0,0-.2-1.19,2.88,2.88,0,0,0-.55-1,2.56,2.56,0,0,0-.89-.66A2.92,2.92,0,0,0,201.94,52Z"/><path class="cls-1" d="M210.4,51.94h0a3.25,3.25,0,0,1,1-.93,2.76,2.76,0,0,1,1.38-.33,3,3,0,0,1,1.44.3,2.43,2.43,0,0,1,.88.8,3.35,3.35,0,0,1,.44,1.17,8,8,0,0,1,.12,1.41v5h-1.44V54.61c0-.34,0-.66,0-1a2.46,2.46,0,0,0-.21-.83,1.52,1.52,0,0,0-.53-.57,2,2,0,0,0-1-.21,1.92,1.92,0,0,0-1.16.31,2,2,0,0,0-.63.8,4.07,4.07,0,0,0-.26,1.08c0,.4,0,.78,0,1.15v4H209V50.92h1.44Z"/><path class="cls-1" d="M219.18,55.45a2.89,2.89,0,0,0,.21,1.11,2.83,2.83,0,0,0,.57.89,2.73,2.73,0,0,0,.87.61,2.78,2.78,0,0,0,1.13.22,2.36,2.36,0,0,0,1.53-.49,4,4,0,0,0,1-1.26l1.22.71A4.55,4.55,0,0,1,224.14,59a4.18,4.18,0,0,1-2.29.62,4.13,4.13,0,0,1-1.72-.34,4,4,0,0,1-1.31-.93A3.94,3.94,0,0,1,218,57a4.8,4.8,0,0,1-.29-1.71,5.77,5.77,0,0,1,.27-1.78,4.15,4.15,0,0,1,.79-1.45,3.71,3.71,0,0,1,1.29-1,4.05,4.05,0,0,1,1.75-.36,3.94,3.94,0,0,1,1.8.39,3.69,3.69,0,0,1,1.29,1,4.35,4.35,0,0,1,.74,1.53,5.69,5.69,0,0,1,.19,1.8Zm5.13-1.22a2.6,2.6,0,0,0-.29-.85,3,3,0,0,0-.55-.71,2.29,2.29,0,0,0-.75-.48,2.24,2.24,0,0,0-.89-.17,2.32,2.32,0,0,0-.9.17,2.42,2.42,0,0,0-.78.48,2.69,2.69,0,0,0-.59.71,2.42,2.42,0,0,0-.31.85Z"/><path class="cls-1" d="M229.17,51.84h0A4.47,4.47,0,0,1,230,51a1.68,1.68,0,0,1,1.1-.33,2.15,2.15,0,0,1,.68.11,3.45,3.45,0,0,1,.62.29l-.69,1.31-.39-.26a.93.93,0,0,0-.47-.11,1.26,1.26,0,0,0-.93.33,1.94,1.94,0,0,0-.49.82,3.77,3.77,0,0,0-.2,1c0,.36,0,.68,0,1v4.23h-1.44V50.92h1.44Z"/></g></svg>