<svg xmlns="http://www.w3.org/2000/svg" viewBox="0 0 41.23 71.13"><defs><style>.cls-1{fill:#383838;}</style></defs><title>name-logo-collapsed</title><g id="Main"><path class="cls-1" d="M3.53,3H8.16l3.67,9.67L15.72,3H20.4l2.74,18.1H18.43L17.11,10.63h-.05L12.72,21.05H10.85L6.7,10.63h0L5.14,21.05H.46Z"/><path class="cls-1" d="M25.13,21.05V3h6.72A9.28,9.28,0,0,1,34,3.2,4.52,4.52,0,0,1,35.75,4a3.64,3.64,0,0,1,1.09,1.45,5.53,5.53,0,0,1,.38,2.2,5.09,5.09,0,0,1-.44,2.18,3.21,3.21,0,0,1-1.55,1.51v.05a3.91,3.91,0,0,1,2.82,1.49A5.17,5.17,0,0,1,38.93,16a4.67,4.67,0,0,1-.57,2.39A4.58,4.58,0,0,1,36.89,20a6.37,6.37,0,0,1-2.09.84,12,12,0,0,1-2.42.25Zm4.7-11h.53a7,7,0,0,0,.91-.06,2.54,2.54,0,0,0,.82-.24,1.57,1.57,0,0,0,.59-.53,1.69,1.69,0,0,0,.22-.93A1.48,1.48,0,0,0,32,6.8a2.42,2.42,0,0,0-.87-.21c-.32,0-.64,0-1,0h-.34Zm0,7.39h.6l1.18,0a4.79,4.79,0,0,0,1.22-.19,2.09,2.09,0,0,0,1-.56,1.58,1.58,0,0,0,.39-1.14,1.73,1.73,0,0,0-.39-1.23,2.06,2.06,0,0,0-1-.57,4.62,4.62,0,0,0-1.26-.17H29.83Z"/><path class="cls-1" d="M2.88,58H6.62v1.41H1.37V45.81H2.88Z"/><path class="cls-1" d="M7.33,45.81H9.05l2.78,5.11,2.77-5.11h1.73l-3.68,6.55,4,7H14.94L11.83,53.8,8.71,59.38H7l4-7Z"/><path class="cls-1" d="M18.27,45.81h2.56c.5,0,1,0,1.45.06a7.32,7.32,0,0,1,1.35.24,6,6,0,0,1,1.27.51,6.52,6.52,0,0,1,1.22.82,6.18,6.18,0,0,1,1.71,2.33,7.37,7.37,0,0,1,.54,2.84,7,7,0,0,1-.54,2.77,6.34,6.34,0,0,1-1.68,2.29,6.26,6.26,0,0,1-1.22.87,6.06,6.06,0,0,1-1.27.52,7.55,7.55,0,0,1-1.37.26q-.7.06-1.5.06H18.27ZM20.88,58a11.59,11.59,0,0,0,1.19,0,5.88,5.88,0,0,0,1.11-.21,4.52,4.52,0,0,0,1-.43,4.75,4.75,0,0,0,1-.71,5,5,0,0,0,1.27-1.82,5.62,5.62,0,0,0,.43-2.16,5.83,5.83,0,0,0-.44-2.23,5,5,0,0,0-1.33-1.84,4.62,4.62,0,0,0-2-1.07,9.93,9.93,0,0,0-2.24-.24h-1.1V58Z"/></g></svg>