<svg id="Layer_1" data-name="Layer 1" xmlns="http://www.w3.org/2000/svg" viewBox="0 0 138.32 138.32"><defs><style>.cls-1{fill:#14564b;stroke:#14564b;stroke-miterlimit:10;}.cls-2{stroke:#383838;}</style></defs><title>portfolio-nav-brand-scratch</title><path class="cls-1" d="M91.7,73.89h12.42c21.48,0,33.7,12,33.7,32,0,21.19-12.67,32-33.7,32H91.7Zm13.86,57.36c15.1,0,24.8-8.68,24.8-25.39,0-16-9.7-25.3-24.8-25.3h-5.07v50.69Z"/><polygon class="cls-1" points="77.69 137.82 50.15 73.91 40.8 73.91 68.33 137.82 77.69 137.82"/><polygon class="cls-1" points="42.51 137.82 70.03 73.88 79.38 73.88 51.85 137.82 42.51 137.82"/><path class="cls-1" d="M.5,73.89H7.81v57.36H29.86v6.57H.5Z"/><path class="cls-2" d="M33.78,49.52,57.41.5h9.66V64H59.75V11.57L37.53,58.23H30L7.81,11.57V64H.5V.5h9.75Z"/><path class="cls-2" d="M91.7.5h21c14.43,0,22.57,6.21,22.57,16.35,0,6.4-3.8,11.33-9.77,14.07,7.27,2.19,12.37,7.58,12.37,15.35,0,11.51-9.87,18.17-22.9,18.17H91.7Zm21.92,27.68c7.6,0,12.59-4.29,12.59-10.78,0-6.3-4.45-10.32-12.59-10.32H100.49v21.1ZM113.41,58c9,0,15.3-3.65,15.3-11.88,0-8.4-6.62-11.69-15.41-11.69H100.49V58Z"/></svg>