<svg xmlns="http://www.w3.org/2000/svg" xmlns:xlink="http://www.w3.org/1999/xlink" viewBox="0 0 36 36.5"><defs><style>.cls-1{fill:none;}.cls-2{clip-path:url(#clip-path);}.cls-3{fill:#e8e8e7;stroke:#3c3c3b;}.cls-3,.cls-4{stroke-miterlimit:10;}.cls-4{fill:#636362;stroke:#e8e8e7;stroke-width:0.25px;}.cls-5{fill:#3c3c3b;}</style><clipPath id="clip-path"><circle class="cls-1" cx="18" cy="18" r="18"/></clipPath></defs><title>resume-btn</title><g id="Icons"><g class="cls-2"><rect class="cls-3" x="9" y="12" width="18" height="28"/></g><rect class="cls-4" x="18.5" y="15" width="6" height="1"/><rect class="cls-4" x="18.5" y="18.5" width="6" height="1"/><rect class="cls-4" x="11.5" y="15" width="6" height="6"/><rect class="cls-4" x="11.5" y="22" width="13" height="1"/><rect class="cls-4" x="11.5" y="25.5" width="13" height="1"/><rect class="cls-4" x="11.5" y="29" width="13" height="1"/><path class="cls-5" d="M18,2A16,16,0,1,1,2,18,16,16,0,0,1,18,2m0-2A18,18,0,1,0,36,18,18,18,0,0,0,18,0Z"/></g></svg>