<svg xmlns="http://www.w3.org/2000/svg" viewBox="0 0 36 36"><defs><style>.cls-1,.cls-2{fill:#3c3c3b;}.cls-2{stroke:#8a8a89;stroke-width:0.75px;}.cls-2,.cls-3{stroke-miterlimit:10;}.cls-3{fill:none;stroke:#3c3c3b;}.cls-4{fill:#8a8a89;}</style></defs><title>work-btn</title><g id="Icons"><path class="cls-1" d="M18,2A16,16,0,1,1,2,18,16,16,0,0,1,18,2m0-2A18,18,0,1,0,36,18,18,18,0,0,0,18,0Z"/><rect class="cls-1" x="8.63" y="12.73" width="18.73" height="13.27" rx="2.25" ry="2.25"/><path class="cls-2" d="M24.63,12.73v6.64a1.75,1.75,0,0,1-1.75,1.75H13.12a1.75,1.75,0,0,1-1.75-1.75V12.73"/><path class="cls-3" d="M14.49,11.76A1.75,1.75,0,0,1,16.24,10h4.3a1.75,1.75,0,0,1,1.75,1.76"/><rect class="cls-4" x="16.05" y="20.15" width="3.9" height="2.34" rx="1.17" ry="1.17"/></g></svg>