<svg id="Layer_1" data-name="Layer 1" xmlns="http://www.w3.org/2000/svg" xmlns:xlink="http://www.w3.org/1999/xlink" viewBox="0 0 138.32 138.32"><defs><style>.cls-1,.cls-4,.cls-5{fill:none;}.cls-2{clip-path:url(#clip-path);}.cls-3{fill:#14564b;}.cls-4{stroke:#14564b;stroke-miterlimit:10;}.cls-5{stroke:#383838;}</style><clipPath id="clip-path" transform="translate(0 0)"><rect class="cls-1" width="138.32" height="138.32"/></clipPath></defs><title>nav-brand</title><g class="cls-2"><path class="cls-3" d="M91.7,73.89h12.42c21.48,0,33.7,12,33.7,32,0,21.19-12.67,32-33.7,32H91.7Zm13.86,57.36c15.1,0,24.8-8.68,24.8-25.39,0-16-9.7-25.3-24.8-25.3h-5.07v50.69Z" transform="translate(0 0)"/><path class="cls-4" d="M91.7,73.89h12.42c21.48,0,33.7,12,33.7,32,0,21.19-12.67,32-33.7,32H91.7Zm13.86,57.36c15.1,0,24.8-8.68,24.8-25.39,0-16-9.7-25.3-24.8-25.3h-5.07v50.69Z" transform="translate(0 0)"/><polygon class="cls-3" points="77.69 137.82 50.15 73.91 40.8 73.91 68.33 137.82 77.69 137.82"/><polygon class="cls-4" points="77.69 137.82 50.15 73.91 40.8 73.91 68.33 137.82 77.69 137.82"/><polygon class="cls-3" points="42.51 137.82 70.03 73.88 79.38 73.88 51.85 137.82 42.51 137.82"/><polygon class="cls-4" points="42.51 137.82 70.03 73.88 79.38 73.88 51.85 137.82 42.51 137.82"/><polygon class="cls-3" points="0.5 73.89 7.81 73.89 7.81 131.25 29.86 131.25 29.86 137.82 0.5 137.82 0.5 73.89"/><polygon class="cls-4" points="0.5 73.89 7.81 73.89 7.81 131.25 29.86 131.25 29.86 137.82 0.5 137.82 0.5 73.89"/><polygon points="33.78 49.52 57.41 0.5 67.07 0.5 67.07 64.04 59.75 64.04 59.75 11.57 37.53 58.23 30.03 58.23 7.81 11.57 7.81 64.04 0.5 64.04 0.5 0.5 10.25 0.5 33.78 49.52"/><polygon class="cls-5" points="33.78 49.52 57.41 0.5 67.07 0.5 67.07 64.04 59.75 64.04 59.75 11.57 37.53 58.23 30.03 58.23 7.81 11.57 7.81 64.04 0.5 64.04 0.5 0.5 10.25 0.5 33.78 49.52"/><path d="M91.7.5h21c14.43,0,22.57,6.21,22.57,16.35,0,6.4-3.8,11.33-9.77,14.07,7.27,2.19,12.37,7.58,12.37,15.35,0,11.51-9.87,18.17-22.9,18.17H91.7Zm21.92,27.68c7.6,0,12.59-4.29,12.59-10.78,0-6.3-4.45-10.32-12.59-10.32H100.49v21.1ZM113.41,58c9,0,15.3-3.65,15.3-11.88,0-8.4-6.62-11.69-15.41-11.69H100.49V58Z" transform="translate(0 0)"/><path class="cls-5" d="M91.7.5h21c14.43,0,22.57,6.21,22.57,16.35,0,6.4-3.8,11.33-9.77,14.07,7.27,2.19,12.37,7.58,12.37,15.35,0,11.51-9.87,18.17-22.9,18.17H91.7Zm21.92,27.68c7.6,0,12.59-4.29,12.59-10.78,0-6.3-4.45-10.32-12.59-10.32H100.49v21.1ZM113.41,58c9,0,15.3-3.65,15.3-11.88,0-8.4-6.62-11.69-15.41-11.69H100.49V58Z" transform="translate(0 0)"/></g></svg>